<svg xmlns="http://www.w3.org/2000/svg" width="48" height="48" viewBox="0 0 48 48"><path d="M24.7327767,7.24736945 C25.7090394,6.27140158 27.2915612,6.27140158 28.2678239,7.24736945 L43.2680241,22.2475697 C44.243992,23.2238323 44.243992,24.8063542 43.2680241,25.7826168 L28.2678239,40.782817 C27.2868636,41.7302602 25.727578,41.7167104 24.7632307,40.7523631 C23.7988833,39.7880157 23.7853335,38.2287302 24.7327767,37.2477699 L35.46542,26.5151266 L6.50003337,26.5151266 C5.11930306,26.5151266 4,25.3958235 4,24.0150932 C4,22.6343629 5.11930306,21.5150599 6.50003337,21.5150599 L35.46542,21.5150599 L24.7327767,10.7824166 C23.7568088,9.80615397 23.7568088,8.22363211 24.7327767,7.24736945 Z" transform="matrix(-1 0 0 1 48 0)"/></svg>