<svg xmlns="http://www.w3.org/2000/svg" width="48" height="48" viewBox="0 0 48 48"><path d="M8,8 C8,5.790861 9.790861,4 12,4 L28,4 C28.5303896,4 29.0390145,4.21090125 29.414,4.586 L39.414,14.586 C39.7890987,14.9609855 40,15.4696104 40,16 L40,40 C40,42.209139 38.209139,44 36,44 L12,44 C9.790861,44 8,42.209139 8,40 L8,8 Z M35.172,16 L28,8.828 L28,16 L35.172,16 Z M24,8 L12,8 L12,40 L36,40 L36,20 L26,20 C24.8954305,20 24,19.1045695 24,18 L24,8 Z M16,26 C16,24.8954305 16.8954305,24 18,24 L30,24 C31.1045695,24 32,24.8954305 32,26 C32,27.1045695 31.1045695,28 30,28 L18,28 C16.8954305,28 16,27.1045695 16,26 Z M16,34 C16,32.8954305 16.8954305,32 18,32 L30,32 C31.1045695,32 32,32.8954305 32,34 C32,35.1045695 31.1045695,36 30,36 L18,36 C16.8954305,36 16,35.1045695 16,34 Z"/></svg>