<svg xmlns="http://www.w3.org/2000/svg" width="48" height="48" viewBox="0 0 48 48"><path d="M17.3333333,1.88888889 C18.5606328,1.88888889 19.5555556,2.88381167 19.5555556,4.11111111 L19.5555556,6.33333333 L28.4444444,6.33333333 L28.4444444,4.11111111 C28.4444444,2.88381167 29.4393672,1.88888889 30.6666667,1.88888889 C31.8939661,1.88888889 32.8888889,2.88381167 32.8888889,4.11111111 L32.8888889,6.33333333 L39.5555556,6.33333333 C42.0101544,6.33333333 44,8.32317889 44,10.7777778 L44,39.6666667 C44,42.1212656 42.0101544,44.1111111 39.5555556,44.1111111 L8.44444444,44.1111111 C5.98984556,44.1111111 4,42.1212656 4,39.6666667 L4,10.7777778 C4,8.32317889 5.98984556,6.33333333 8.44444444,6.33333333 L15.1111111,6.33333333 L15.1111111,4.11111111 C15.1111111,2.88381167 16.1060339,1.88888889 17.3333333,1.88888889 Z M15.1111111,10.7777778 L8.44444444,10.7777778 L8.44444444,17.4444444 L39.5555556,17.4444444 L39.5555556,10.7777778 L32.8888889,10.7777778 L32.8888889,13 C32.8888889,14.2272994 31.8939661,15.2222222 30.6666667,15.2222222 C29.4393672,15.2222222 28.4444444,14.2272994 28.4444444,13 L28.4444444,10.7777778 L19.5555556,10.7777778 L19.5555556,13 C19.5555556,14.2272994 18.5606328,15.2222222 17.3333333,15.2222222 C16.1060339,15.2222222 15.1111111,14.2272994 15.1111111,13 L15.1111111,10.7777778 Z M39.5555556,21.8888889 L8.44444444,21.8888889 L8.44444444,39.6666667 L39.5555556,39.6666667 L39.5555556,21.8888889 Z"/></svg>