<svg xmlns="http://www.w3.org/2000/svg" width="48" height="48" viewBox="0 0 48 48"><path d="M24,3.76593328 C35.1749665,3.76593328 44.2340667,12.8250335 44.2340667,24 C44.2340667,35.1749665 35.1749665,44.2340667 24,44.2340667 C12.8250335,44.2340667 3.76593328,35.1749665 3.76593328,24 C3.76593328,12.8250335 12.8250335,3.76593328 24,3.76593328 Z M12.0026286,13.0621602 L11.8181661,13.2690013 C9.29603597,16.1299094 7.76593328,19.8862674 7.76593328,24 C7.76593328,32.9658275 15.0341725,40.2340667 24,40.2340667 C28.1674405,40.2340667 31.9681138,38.6637499 34.8425935,36.0825429 C26.8624916,36.4737252 20.7339107,34.466928 16.5702911,29.9666765 C12.5827361,25.6567244 11.0859696,19.9822942 12.0026286,13.0621602 Z M24,7.76593328 C21.4119507,7.76593328 18.9653494,8.37154399 16.7941799,9.44878156 C14.7446736,17.2669413 15.6944823,23.130082 19.5064004,27.2501967 C23.3292446,31.3821209 29.5250869,32.9297134 38.2689227,31.7470984 C39.522478,29.4445414 40.2340667,26.8053709 40.2340667,24 C40.2340667,23.3869812 40.2000889,22.7818984 40.1339137,22.1865321 L35.2490363,27.0709075 C34.4617501,27.8581936 33.1853071,27.8581936 32.3980209,27.0709075 C31.6107348,26.2836213 31.6107348,25.0071783 32.3980209,24.2198921 L32.3980209,24.2198921 L38.9520401,17.6661578 C38.3989248,16.3620714 37.6801845,15.1452475 36.8222077,14.0420745 L26.8579146,24.0068993 C26.0706285,24.7941854 24.7941854,24.7941854 24.0068993,24.0068993 C23.2196131,23.2196131 23.2196131,21.9431701 24.0068993,21.1558839 L24.0068993,21.1558839 L33.9724878,11.1891312 C32.865942,10.3265192 31.6447243,9.60413407 30.3355385,9.04867945 L30.2869273,9.11229176 L30.2869273,9.11229176 L30.1691615,9.24052248 L23.7939064,15.6157776 C23.0066202,16.4030638 21.7301772,16.4030638 20.942891,15.6157776 C20.1556049,14.8284915 20.1556049,13.5520484 20.942891,12.7647623 L20.942891,12.7647623 L25.8384077,7.86887784 C25.2350018,7.80086687 24.6215805,7.76593328 24,7.76593328 Z"/></svg>