<svg xmlns="http://www.w3.org/2000/svg" width="48" height="48" viewBox="0 0 48 48"><path d="M28.5,8.25 C27.2573593,8.25 26.25,7.24264069 26.25,6 C26.25,4.75735931 27.2573593,3.75 28.5,3.75 L42,3.75 C43.2426407,3.75 44.25,4.75735931 44.25,6 L44.25,19.5 C44.25,20.7426407 43.2426407,21.75 42,21.75 C40.7573593,21.75 39.75,20.7426407 39.75,19.5 L39.75,11.4315 L18.84075,32.34075 C17.9578975,33.1934375 16.5545593,33.1812428 15.6866582,32.3133418 C14.8187572,31.4454407 14.8065625,30.0421025 15.65925,29.15925 L36.5685,8.25 L28.5,8.25 Z M3.75,12.75 C3.75,10.2647186 5.76471863,8.25 8.25,8.25 L19.5,8.25 C20.7426407,8.25 21.75,9.25735931 21.75,10.5 C21.75,11.7426407 20.7426407,12.75 19.5,12.75 L8.25,12.75 L8.25,39.75 L35.25,39.75 L35.25,28.5 C35.25,27.2573593 36.2573593,26.25 37.5,26.25 C38.7426407,26.25 39.75,27.2573593 39.75,28.5 L39.75,39.75 C39.75,42.2352814 37.7352814,44.25 35.25,44.25 L8.25,44.25 C5.76471863,44.25 3.75,42.2352814 3.75,39.75 L3.75,12.75 Z"/></svg>