<svg xmlns="http://www.w3.org/2000/svg" width="44" height="44" viewBox="0 0 44 44"><path fill-rule="evenodd" d="M22.0157048,3.45443133 C32.4995263,3.45443133 41.0313969,11.9548276 40.9999131,22.4701329 C40.9999131,30.8760842 35.5533751,37.9912297 27.9974641,40.5098659 C27.0529756,40.6987631 26.7066634,40.1005865 26.7066634,39.5968598 C26.7066634,38.9672007 26.738144,36.9208079 26.738144,34.3706903 C26.738144,32.5761615 26.1399678,31.4427766 25.4473433,30.8446004 C29.6975415,30.3723561 34.1366392,28.766727 34.1366392,21.46268 C34.1366392,19.3848035 33.412531,17.6847261 32.1846978,16.3624416 C32.3735943,15.8901974 33.0347381,13.9382528 31.9957982,11.3251708 C31.9957982,11.3251708 31.9876063,11.3226007 31.9710731,11.3187227 L31.8963012,11.3044268 C31.4959265,11.2416443 29.8729494,11.1722526 26.769631,13.2771121 C25.25845,12.8678355 23.6213339,12.6474553 22.0157048,12.6474553 C20.4100725,12.6474553 18.7729595,12.8678355 17.2617786,13.2771121 C13.6412373,10.8214427 12.0356082,11.3251708 12.0356082,11.3251708 C10.9966683,13.9382528 11.6578122,15.8901974 11.8467086,16.3624416 C10.6503561,17.6847261 9.89476721,19.3848066 9.89476721,21.46268 C9.89476721,28.766727 14.3338618,30.4038399 18.5525793,30.8446004 C18.0173675,31.3168446 17.5136395,32.1668849 17.3562268,33.394718 C16.2543225,33.898446 13.5153053,34.7170025 11.815228,31.8205726 C11.815228,31.8205726 10.8077719,29.9945601 8.88731115,29.8686281 L8.88731115,29.8686281 L8.86805537,29.8688874 C8.6753434,29.8729068 7.13476108,29.9392262 8.76137915,31.0334968 C8.76137915,31.0334968 10.0206992,31.6001924 10.8707395,33.8039978 C10.8707395,33.8039978 11.9726406,37.2041557 17.2617786,36.0707708 C17.2617786,37.6449177 17.2932592,39.156098 17.2932592,39.5968598 C17.2932592,40.1005865 16.946947,40.6987631 16.0024585,40.5098659 C8.4465507,37.9912297 3,30.8760842 3,22.4701361 C3,11.9548276 11.5003964,3.45443133 22.0157048,3.45443133 Z M15.3334578,34.2132745 C15.5665586,34.2132745 15.7663616,34.4056749 15.7663616,34.6461766 C15.7663616,34.8866783 15.5665619,35.0790787 15.3334578,35.0790787 C15.1003571,35.0790787 14.9005574,34.8866783 14.9005574,34.6461766 C14.9005574,34.4056749 15.1003571,34.2132745 15.3334578,34.2132745 Z M17.2376794,34.357056 C17.2719631,34.5925408 17.1005481,34.8280303 16.8605726,34.8751291 C16.6205902,34.9222232 16.4148949,34.7809314 16.3806113,34.5454467 C16.346331,34.3099572 16.5177426,34.0744677 16.7577215,34.0273736 C16.9977004,33.98027 17.2033991,34.1215666 17.2376794,34.357056 Z M13.9030272,34.0045697 C14.1425414,34.0980068 14.2794017,34.3315904 14.2451883,34.5651786 C14.2109715,34.7987668 13.9714608,34.8921993 13.73195,34.7987668 C13.4924358,34.7053297 13.3555755,34.4250229 13.3897889,34.2381579 C13.4240057,34.0045697 13.6635164,33.9111372 13.9030272,34.0045697 Z M12.7824707,33.3359557 C12.9722094,33.4938274 13.0101586,33.7701127 12.8963147,33.9279883 C12.7824707,34.085864 12.5168297,34.0463941 12.2891417,33.8490485 C12.1204817,33.6736338 12.0417755,33.4358469 12.1329767,33.3020081 L12.1752977,33.2570159 C12.2891417,33.0991403 12.5547789,33.1386102 12.7824707,33.3359557 Z M11.9461522,32.3170234 C12.1284227,32.519373 12.1284227,32.7621893 11.9461522,32.8835975 C11.7638772,33.0050097 11.4904624,32.8835975 11.3537572,32.6812519 C11.1714822,32.4789023 11.1714822,32.1956152 11.3537572,32.1146737 C11.5360323,31.9932656 11.8094425,32.1146737 11.9461522,32.3170234 Z M10.2968156,30.5029169 C10.5147459,30.6352951 10.6237138,30.9000449 10.5692299,31.098599 L10.564,31.1104313 L10.6159085,31.0761025 C10.7654913,31.0040364 10.9766689,31.0942789 11.149942,31.254707 C11.3479684,31.4838911 11.3974763,31.7589084 11.2489577,31.8505839 C11.1004391,31.9880926 10.803397,31.8964171 10.6548784,31.7130707 C10.4987142,31.5684832 10.4349129,31.366886 10.4877545,31.2206731 C10.3805373,31.3179391 10.187261,31.3299004 10.0244067,31.2309772 C9.80647636,31.098599 9.64302995,30.8338492 9.75199241,30.6352885 C9.80647636,30.4367211 10.0788907,30.3705387 10.2968156,30.5029169 Z"/></svg>