<svg xmlns="http://www.w3.org/2000/svg" width="48" height="48" viewBox="0 0 48 48"><path d="M24,2.25 C36.012525,2.25 45.75,11.987475 45.75,24 C45.75,36.012525 36.012525,45.75 24,45.75 C11.987475,45.75 2.25,36.012525 2.25,24 C2.25,11.987475 11.987475,2.25 24,2.25 Z M24,6.6 C14.3902454,6.6 6.6,14.3902454 6.6,24 C6.6,33.6097546 14.3902454,41.4 24,41.4 C33.6097546,41.4 41.4,33.6097546 41.4,24 C41.4,14.3902454 33.6097546,6.6 24,6.6 Z M24,19.65 C25.2012193,19.65 26.175,20.6237807 26.175,21.825 L26.175,34.875 C26.175,36.0762193 25.2012193,37.05 24,37.05 C22.7987807,37.05 21.825,36.0762193 21.825,34.875 L21.825,21.825 C21.825,20.6237807 22.7987807,19.65 24,19.65 Z M24,10.95 C25.801829,10.95 27.2625,12.410671 27.2625,14.2125 C27.2625,16.014329 25.801829,17.475 24,17.475 C22.198171,17.475 20.7375,16.014329 20.7375,14.2125 C20.7375,12.410671 22.198171,10.95 24,10.95 Z"/></svg>