<svg xmlns="http://www.w3.org/2000/svg" width="44" height="44" viewBox="0 0 44 44"><path fill-rule="evenodd" d="M22.3712188,12.2556737 C17.0083156,12.2556737 12.5647672,16.6226092 12.5647672,22.0621253 C12.5647672,27.5016415 16.9317027,31.868577 22.3712188,31.868577 C27.8107349,31.868577 32.1776704,27.4250286 32.1776704,22.0621253 C32.1776704,16.6992221 27.734122,12.2556737 22.3712188,12.2556737 Z M30.2623478,3.06212534 C33.4800898,3.06212534 36.3147672,4.13470598 38.3067027,6.20325437 C40.2986382,8.19518985 41.3712188,10.9532544 41.3712188,14.1709963 L41.3712188,14.1709963 L41.3712188,29.9532544 C41.3712188,33.2476092 40.2986382,36.0822866 38.2300898,38.0742221 C36.2381543,39.9895447 33.4800898,41.0621253 30.1857349,41.0621253 L30.1857349,41.0621253 L14.5567027,41.0621253 C11.4155736,41.0621253 8.65750912,40.0661576 6.58896074,38.0742221 C4.44379945,36.0056737 3.3712188,33.1709963 3.3712188,29.8766415 L3.3712188,29.8766415 L3.3712188,14.1709963 C3.3712188,7.50567373 7.81476719,3.06212534 14.4800898,3.06212534 L14.4800898,3.06212534 Z M30.3389607,6.58631889 L14.5567027,6.58631889 C12.2583156,6.58631889 10.2663801,7.27583502 8.96396074,8.57825437 C7.58492848,9.95728663 6.89541235,11.8726092 6.89541235,14.1709963 L6.89541235,14.1709963 L6.89541235,29.8766415 C6.89541235,32.2516415 7.58492848,34.166964 8.96396074,35.5459963 C10.342993,36.8484157 12.2583156,37.5379318 14.5567027,37.5379318 L14.5567027,37.5379318 L30.1857349,37.5379318 C32.484122,37.5379318 34.3994446,36.8484157 35.7784769,35.5459963 C37.1575091,34.243577 37.8470253,32.3282544 37.8470253,29.9532544 L37.8470253,29.9532544 L38.0002511,29.9532544 L38.0002511,14.1709963 C38.0002511,11.9492221 37.234122,10.0338995 35.9317027,8.65486727 C34.5526704,7.27583502 32.6373478,6.58631889 30.3389607,6.58631889 L30.3389607,6.58631889 Z M22.3712188,15.7798673 C25.8187994,15.7798673 28.6534769,18.6145447 28.6534769,22.0621253 C28.6534769,25.509706 25.8187994,28.3443834 22.3712188,28.3443834 C18.9236382,28.3443834 16.0889607,25.509706 16.0889607,22.0621253 C16.0889607,18.6145447 18.9236382,15.7798673 22.3712188,15.7798673 Z M32.4075091,9.95728663 C33.6345611,9.95728663 34.6292833,10.9520088 34.6292833,12.1790608 C34.6292833,13.4061128 33.6345611,14.400835 32.4075091,14.400835 C31.1804571,14.400835 30.1857349,13.4061128 30.1857349,12.1790608 C30.1857349,10.9520088 31.1804571,9.95728663 32.4075091,9.95728663 Z"/></svg>