<svg xmlns="http://www.w3.org/2000/svg" width="48" height="48" viewBox="0 0 48 48"><path d="M24,3.76593328 C35.1749665,3.76593328 44.2340667,12.8250335 44.2340667,24 C44.2340667,35.1749665 35.1749665,44.2340667 24,44.2340667 C12.8250335,44.2340667 3.76593328,35.1749665 3.76593328,24 C3.76593328,12.8250335 12.8250335,3.76593328 24,3.76593328 Z M24.009757,29.0903161 C20.6559368,29.0901076 17.6521187,31.1657807 16.4662667,34.3029554 C15.9943587,35.5513894 15.8495599,36.8641938 16.0047771,38.1322313 C18.3658688,39.4703816 21.0937503,40.2340667 24,40.2340667 C26.9148687,40.2340667 29.6503097,39.4658452 32.0149009,38.1208242 C32.1690368,36.8559074 32.023666,35.5474491 31.5532474,34.3029554 C30.3673953,31.1657807 27.3635773,29.0901076 24.009757,29.0903161 Z M24,7.76593328 C15.0341725,7.76593328 7.76593328,15.0341725 7.76593328,24 C7.76593328,28.2648393 9.41050873,32.1455674 12.1000856,35.0426103 C12.5826601,32.3258221 13.9907881,29.7737291 16.2355779,27.8904872 C20.7319791,24.1182804 27.287535,24.1182804 31.7839362,27.8904872 C34.0238906,29.7696726 35.4307838,32.3148307 35.9161093,35.0245684 C38.5962948,32.1294947 40.2340667,28.2560084 40.2340667,24 C40.2340667,15.0341725 32.9658275,7.76593328 24,7.76593328 Z M33.56248,19.4355299 C34.1191754,18.4713053 35.3521247,18.1409375 36.3163493,18.6976329 C37.280574,19.2543282 37.6109418,20.4872775 37.0542464,21.4515022 L37.0542464,21.4515022 L34.6452983,25.6239227 C34.0886029,26.5881474 32.8556536,26.9185152 31.8914289,26.3618198 C30.9272043,25.8051244 30.5968365,24.5721751 31.1535319,23.6079504 L31.1535319,23.6079504 Z M11.6380208,18.5128254 C12.6022455,17.95613 13.8351948,18.2864978 14.3918901,19.2507224 L14.3918901,19.2507224 L16.8998763,23.5946819 C17.4565717,24.5589065 17.1262039,25.7918558 16.1619792,26.3485512 C15.1977545,26.9052466 13.9648052,26.5748788 13.4081099,25.6106541 L13.4081099,25.6106541 L10.9001237,21.2666947 C10.3434283,20.30247 10.6737961,19.0695207 11.6380208,18.5128254 Z M24.0019446,12.6735679 C25.1153353,12.6735679 26.0179169,13.5761494 26.0179169,14.6895402 L26.0179169,14.6895402 L26.0179169,21.7055125 C26.0179169,22.8189032 25.1153353,23.7214847 24.0019446,23.7214847 C22.8885538,23.7214847 21.9859723,22.8189032 21.9859723,21.7055125 L21.9859723,21.7055125 L21.9859723,14.6895402 C21.9859723,13.5761494 22.8885538,12.6735679 24.0019446,12.6735679 Z" transform="rotate(-180 24 24)"/></svg>