<svg xmlns="http://www.w3.org/2000/svg" width="44" height="44" viewBox="0 0 44 44"><path fill-rule="evenodd" d="M6.01162791,15.4360465 L12.7906977,15.4360465 L12.7906977,37.4360465 L6.01162791,37.4360465 L6.01162791,15.4360465 Z M30.3139535,14.7965116 C37.1146691,14.7965116 38.459312,19.2605711 38.4990759,25.0142477 L38.5,37.3081395 L31.7209302,37.3081395 L31.7206359,26.2262673 C31.7201943,26.0555845 31.7190905,25.8823944 31.716331,25.7078325 L31.7083098,25.3572158 C31.6379962,23.0706906 31.1759353,20.6802326 28.1395349,20.6802326 C24.5581395,20.6802326 24.0465116,23.494186 24.0465116,26.3081395 L24.0465116,37.1802326 L17.2674419,37.1802326 L17.2674419,15.4360465 L23.6627907,15.4360465 L23.6627907,18.377907 L23.7906977,18.377907 C24.6860465,16.5872093 26.9883721,14.7965116 30.3139535,14.7965116 Z M9.46511628,4.56395349 C11.6395349,4.56395349 13.4302326,6.35465116 13.4302326,8.52906977 C13.4302326,10.7034884 11.6395349,12.494186 9.46511628,12.494186 C7.29069767,12.494186 5.5,10.7034884 5.5,8.52906977 C5.5,6.35465116 7.29069767,4.56395349 9.46511628,4.56395349 Z"/></svg>