<svg width="48" height="48" viewBox="0 0 48 48" xmlns="http://www.w3.org/2000/svg"><path d="M24,3.25 C14.87,3.25 7.4,10.72 7.4,19.85 C7.4,31.055 21.925,43.7125 22.5475,44.335 C22.9625,44.5425 23.585,44.75 24,44.75 C24.415,44.75 25.0375,44.5425 25.4525,44.335 C26.075,43.7125 40.6,31.055 40.6,19.85 C40.6,10.72 33.13,3.25 24,3.25 Z M24,39.9775 C19.6425,35.8275 11.55,26.905 11.55,19.85 C11.55,13.0025 17.1525,7.4 24,7.4 C30.8475,7.4 36.45,13.0025 36.45,19.85 C36.45,26.6975 28.3575,35.8275 24,39.9775 Z M24,11.55 C19.435,11.55 15.7,15.285 15.7,19.85 C15.7,24.415 19.435,28.15 24,28.15 C28.565,28.15 32.3,24.415 32.3,19.85 C32.3,15.285 28.565,11.55 24,11.55 Z M24,24 C21.7175,24 19.85,22.1325 19.85,19.85 C19.85,17.5675 21.7175,15.7 24,15.7 C26.2825,15.7 28.15,17.5675 28.15,19.85 C28.15,22.1325 26.2825,24 24,24 Z" /></svg>
