<svg xmlns="http://www.w3.org/2000/svg" width="48" height="48" viewBox="0 0 48 48"><path d="M0,4.25 C0,1.90278981 1.90278981,0 4.25,0 L38.25,0 C40.5972102,0 42.5,1.90278981 42.5,4.25 L42.5,29.75 C42.5,32.0972102 40.5972102,34 38.25,34 L4.25,34 C1.90278981,34 0,32.0972102 0,29.75 L0,4.25 Z M7.477875,4.25 L21.25,16.300875 L35.022125,4.25 L7.48,4.25 L7.477875,4.25 Z M38.25,7.074125 L22.650375,20.725125 C21.8488558,21.4273867 20.6511442,21.4273867 19.849625,20.725125 L4.25,7.074125 L4.25,29.75 L38.25,29.75 L38.25,7.074125 Z" transform="translate(2.75 7)"/></svg>
