<svg xmlns="http://www.w3.org/2000/svg" width="150" height="150" viewBox="0 0 150 150"><path d="M13.7136636 21.5298762C13.2551841 21.5294321 12.8284531 21.2956726 12.581246 20.9095478L7.54039582 13.0199169C7.47217789 12.9171353 7.40850782 12.8771141 7.34028989 12.8943959 7.27207196 12.9116778 7.23659864 12.9853532 7.23659864 13.1236082L7.23659864 35.6728173C7.23883347 35.8382869 7.17307374 35.9974255 7.05468416 36.1130503 6.9404267 36.2295075 6.7830095 36.2933965 6.61990856 36.2896751L.616730788 36.2896751C.453629841 36.2933965.296212648 36.2295075.181955186 36.1130503.0638356305 35.9972431-.00187412461 35.8382255 0 35.6728173L0 1.02447626C-.00176697759.860686268.0640436295.703398917.181955186.589700658.295931978.472723391.453453721.408462429.616730788.412168684L6.61354155.412168684C6.91005324.406464182 7.18619424.562665154 7.33392288.819822472L15.0216287 12.7615984C15.1244104 12.9671617 15.2271921 12.9671617 15.3245163 12.7615984L23.0631582.819822472C23.2110303.562809607 23.4870778.406661548 23.7835395.412168684L29.7812599.412168684C29.944093.41160873 30.1005449.475599179 30.2161971.590227883 30.3318493.704856587 30.3972279.86073351 30.3980051 1.02356669L30.3980051 35.6709981C30.4001848 35.8364678 30.3344251 35.9956063 30.2160355 36.1112312 30.102058 36.2275473 29.944977 36.2914335 29.7821695 36.2876882L23.7853587 36.2876882C23.6225512 36.2914335 23.4654702 36.2275473 23.3514927 36.1112312 23.2331934 35.9955453 23.1674504 35.8364473 23.1695782 35.6709981L23.1695782 13.0699434C23.1695782 12.9316884 23.135924 12.8643801 23.0667965 12.8643801 22.997669 12.8643801 22.9303606 12.9162257 22.8676001 13.0180978L17.82675 20.9086383C17.5800756 21.2948749 17.1535288 21.5287212 16.6952419 21.5289666L13.7136636 21.5298762 13.7136636 21.5298762ZM70.5637571 9.43256343C70.5291933 9.29612757 70.4782573 9.23882451 70.4100394 9.25064895 70.3316633 9.28184962 70.2740084 9.35008033 70.2563216 9.43256343L62.4148981 35.7746894C62.3517705 36.0866449 62.0696605 36.3052898 61.7518198 36.2885978L55.2392815 36.2885978C55.0665173 36.302567 54.8966935 36.237713 54.7772187 36.1121408 54.6675375 35.9510836 54.6483003 35.7449698 54.7262827 35.5663973L65.8012361.918965863C65.8646288.607506822 66.1480094.390507135 66.4652239.410514897L74.5122108.410514897C74.8298887.392145663 75.1136019.607922042 75.1807465.918965863L86.2502425 35.5663973C86.2866254 35.6473493 86.3048169 35.7355778 86.3011786 35.8238063 86.3011786 36.1312418 86.1128971 36.2849595 85.7363341 36.2858691L79.2301628 36.2858691C78.9106765 36.304166 78.6260986 36.0854088 78.5616271 35.7719607L70.5637571 9.43256343ZM115.699468 35.3908498C113.789398 34.6307821 112.142075 33.3308125 110.958776 31.6497786 109.831618 29.9784851 109.248942 27.9994856 109.290621 25.9840522L109.290621 24.8580016C109.286109 24.6948739 109.350491 24.5373854 109.467987 24.4241355 109.583673 24.3058363 109.742771 24.2400933 109.90822 24.2422211L115.752223 24.2422211C115.915698 24.2406644 116.072609 24.306455 116.186089 24.4241355 116.301764 24.5385418 116.365533 24.6953342 116.362546 24.8580016L116.362546 25.629319C116.37859 27.0256534 117.089892 28.3220301 118.259004 29.085694 119.770518 30.0987945 121.570189 30.5935604 123.387174 30.4955312 124.831693 30.6071234 126.26845 30.1980045 127.437499 29.3421935 128.288639 28.6441266 128.777355 27.5977849 128.766385 26.497051 128.78722 25.7231575 128.491591 24.9742287 127.94777 24.423226 127.306249 23.7902806 126.550747 23.2844518 125.721136 22.9324368 124.778819 22.5103952 123.28803 21.9146253 121.236944 21.1678664 119.241733 20.5037051 117.296385 19.6982096 115.415681 18.7574996 113.845782 17.9533735 112.477722 16.8051357 111.413563 15.3984487 110.306747 13.8770917 109.739799 12.0296286 109.80271 10.1493065 109.761718 8.23270325 110.316617 6.3506249 111.390823 4.76281878 112.495747 3.19092632 114.025181 1.96592774 115.80043 1.23094919 117.861131.377952427 120.075842-.040092934 122.305692.00302646649 124.693157-.0388913641 127.061764.432596709 129.251187 1.3855765 131.166746 2.21328737 132.816711 3.5530875 134.019165 5.25762616 135.174141 6.95481976 135.772981 8.96907075 135.7328 11.0215864L135.7328 11.7919942C135.733253 11.952311 135.670888 12.1064268 135.559071 12.2213124 135.446707 12.3355791 135.293641 12.4006645 135.133391 12.4023173L129.228447 12.4023173C129.064804 12.4057807 128.906762 12.3426758 128.790509 12.2274517 128.674256 12.1122275 128.609749 11.9547529 128.611757 11.7910846L128.611757 11.3781388C128.616396 9.94873752 127.963323 8.59663687 126.84082 7.71165247 125.462033 6.63938078 123.741141 6.10356125 121.997347 6.20358144 120.664416 6.12360566 119.342009 6.48272259 118.232627 7.22594081 117.339518 7.88184714 116.830338 8.93837789 116.873726 10.0456152 116.850077 10.8369432 117.133863 11.607351 117.666873 12.1931156 118.337781 12.8706378 119.140484 13.4034002 120.025394 13.7584897 121.065035 14.2214621 122.679526 14.8454287 124.868867 15.6312993 126.813032 16.3191357 128.721308 17.1044857 130.586439 17.984363 132.035529 18.7247123 133.310724 19.7645868 134.32751 21.0350688 135.484668 22.5354013 136.073657 24.3967744 135.990209 26.2896685 136.11039 29.2494876 134.793992 32.085198 132.45561 33.903699 130.098908 35.7637745 126.90358 36.6942671 122.871446 36.6951767 120.416556 36.7503073 117.97602 36.3065733 115.697649 35.3908498M8.26168672 101.515853C6.35172375 100.754725 4.70430683 99.4546147 3.52008585 97.7738722 2.39335733 96.1024216 1.81101245 94.1234657 1.85283967 92.1081458L1.85283967 90.9830047C1.849112 90.8200209 1.91337021 90.6628354 2.03020628 90.5491387 2.1456123 90.4309794 2.30437462 90.3652393 2.46952975 90.3672242L8.31353235 90.3672242C8.65219613 90.3697251 8.92527448 90.6452416 8.92476499 90.9839143L8.92476499 91.7561412C8.9402844 93.1523871 9.65130271 94.4488696 10.8203139 95.2125163 12.3318029 96.2264922 14.1319571 96.7216224 15.9493926 96.6232631 17.3933682 96.7350635 18.8296241 96.3259032 19.9978993 95.4699253 20.8490413 94.7720837 21.3383235 93.7262974 21.3286037 92.6256924 21.3489098 91.8518924 21.053359 91.1031635 20.5099885 90.5518674 19.8680459 89.9190144 19.1122647 89.4132058 18.2824457 89.0610783 17.3401287 88.6381271 15.8493396 88.0432667 13.7991634 87.2955982 11.8037513 86.6319738 9.85836572 85.8264626 7.97790013 84.8852314 6.40794851 84.0811842 5.03987204 82.9329327 3.97578162 81.5261806 2.86929337 80.005051 2.30265809 78.157884 2.36583849 76.2779479 2.32408213 74.3608257 2.87938313 72.4781423 3.95486146 70.8905506 5.05912625 69.3171757 6.5886551 68.0908393 8.3644684 67.3550428 10.4251688 66.502046 12.6398803 66.0840006 14.8697301 66.12712 17.2571641 66.0855424 19.6256997 66.5570162 21.8152249 67.5096701 23.7307814 68.3371114 25.3807176 69.6773305 26.5832034 71.3826293 27.738564 73.0796401 28.3374413 75.0940167 28.2968377 77.1465895L28.2968377 77.9179069C28.2980484 78.0785698 28.2353841 78.2331329 28.1226312 78.3475917 28.0098782 78.4620504 27.8562734 78.5270283 27.6956104 78.52823L21.791576 78.52823C21.6270114 78.5318382 21.4681841 78.4677154 21.3522525 78.3508634 21.2336499 78.2380164 21.1676833 78.080686 21.1703381 77.9169973L21.1703381 77.5058706C21.1741682 76.0763978 20.5212844 74.7243551 19.3994006 73.8384747 18.0204944 72.7671851 16.3001481 72.231758 14.5568372 72.3313133 13.2252363 72.2529465 11.904591 72.6126579 10.796665 73.3554918 9.90346686 74.0114095 9.39399973 75.0678296 9.43685425 76.1751662 9.41326721 76.9668495 9.69795223 77.7367709 10.2309109 78.3226666 10.9014909 79.0003634 11.7042991 79.5328856 12.5894321 79.8871311 13.6290734 80.3501035 15.2435644 80.9740701 17.4329051 81.7608503 19.3774818 82.4476099 21.285812 83.2329822 23.1504772 84.113914 24.599739 84.8536014 25.8750047 85.8932236 26.8915484 87.1637102 28.0494846 88.6636357 28.6385661 90.525301 28.5542467 92.4183099 28.67361 95.3779134 27.3569509 98.2131171 25.0187388 100.031431 22.6629464 101.894235 19.4685281 102.825637 15.4354842 102.825637 12.9796387 102.877483 10.539256 102.432702 8.26077715 101.516763M72.7767467 66.4309172 78.5206964 68.1591047C78.6776025 68.2020792 78.8094684 68.3085609 78.8845253 68.4528966 78.9653508 68.597389 78.9831156 68.7687864 78.9336422 68.9267838L68.9710958 102.110713C68.9267535 102.268853 68.8177686 102.400956 68.670937 102.474542 68.5286834 102.55254 68.3606289 102.568654 68.2061455 102.519111L62.4621958 100.790924C62.3046597 100.749186 62.1723478 100.642344 62.0983669 100.497132 62.0180519 100.354522 61.9996448 100.185242 62.0474308 100.028702L72.0108868 66.8447726C72.0566153 66.6859605 72.1654252 66.5528246 72.3119552 66.4763958 72.4544259 66.3980362 72.6229093 66.3819118 72.7776563 66.4318268M115.699468 101.515853C113.78944 100.755262 112.142176 99.4550233 110.958776 97.7738722 109.831563 96.1026043 109.248883 94.1235872 109.290621 92.1081458L109.290621 90.9820951C109.286109 90.8189674 109.350491 90.661479 109.467987 90.5482291 109.583734 90.4300198 109.742792 90.3642935 109.90822 90.3663146L115.752223 90.3663146C116.09095 90.3683186 116.364057 90.6442752 116.362546 90.9830047L116.362546 91.7552317C116.378752 93.1515238 117.090014 94.4478293 118.259004 95.2116067 119.770493 96.2255826 121.570648 96.7207128 123.388083 96.6223535 124.832339 96.7341311 126.268873 96.3249836 127.437499 95.4690157 128.289497 94.7718394 128.778983 93.7256181 128.768204 92.6247829 128.788722 91.8509455 128.493139 91.1021367 127.949589 90.5509578 127.308208 89.9178417 126.552671 89.4119897 125.722956 89.0601687 124.780639 88.6372175 123.289849 88.0423572 121.238764 87.2946887 119.243402 86.6309275 117.298027 85.8254202 115.4175 84.8843218 113.847496 84.0803535 112.479404 82.9320884 111.415382 81.525271 110.309013 80.004036 109.742102 78.1570148 109.804529 76.2770383 109.763546 74.3607196 110.318452 72.4789337 111.392643 70.8914602 112.49689 69.3178535 114.026398 68.0912184 115.802249 67.3550428 117.86295 66.502046 120.077661 66.0840006 122.307511 66.12712 124.694945 66.0855424 127.063481 66.5570162 129.253006 67.5096701 131.168562 68.3371114 132.818499 69.6773305 134.020984 71.3826293 135.1764 73.079614 135.775283 75.0940085 135.734619 77.1465895L135.734619 77.9169973C135.734975 78.0772954 135.672625 78.231376 135.56089 78.3463155 135.448828 78.461572 135.295055 78.5268189 135.134301 78.5273204L129.230267 78.5273204C129.065643 78.5312531 128.906692 78.4670804 128.790943 78.3499538 128.673446 78.2367039 128.609064 78.0792155 128.613577 77.9160878L128.613577 77.504961C128.616728 76.0756426 127.96398 74.7238807 126.842639 73.8375652 125.463454 72.7661388 123.742774 72.2307085 121.999166 72.3304037 120.666365 72.2504307 119.344052 72.6092028 118.234446 73.3518535 117.340189 74.0068055 116.830696 75.0639872 116.875545 76.1715279 116.851896 76.9628559 117.136592 77.7332637 117.668692 78.3190283 118.339355 78.9966244 119.142141 79.5291319 120.027213 79.8834928 121.066854 80.3464652 122.681345 80.9713414 124.870686 81.7581215 126.81523 82.4449664 128.723556 83.2303369 130.588258 84.1111853 132.037413 84.8510364 133.312647 85.8906325 134.329329 87.1609815 135.487407 88.6608329 136.076506 90.5225514 135.992028 92.4155812 136.112826 95.3752674 134.796274 98.2109719 132.457429 100.028702 130.100727 101.888778 126.9054 102.82018 122.873265 102.821999 120.418194 102.874046 117.977972 102.428823 115.699468 101.513124" transform="translate(7.76 23.585)"/></svg>