<svg xmlns="http://www.w3.org/2000/svg" width="150" height="150" viewBox="0 0 150 150"><path fill-rule="evenodd" d="M42.7188128 57.899301C41.0388489 56.0592671 40.7990008 53.4993466 40.1588923 46.0596043 39.5989043 40.139756 36.6390658 36.7798282 30.8791162 35.6598523 37.0389838 34.8598451 41.9989261 30.4600619 41.9989261 22.8602497 41.9989261 13.5005242 35.6789886 7.50055537 22.7994366 7.50055537L0 7.50055537 0 57.899301 9.83974694 57.899301 9.83974694 39.2597994 21.6794607 39.2597994C27.4392391 39.2597994 29.9991596 41.8197199 30.3992488 47.4995489 30.7991668 53.0994286 31.4391042 56.5393057 32.4791307 57.899301L42.7188128 57.899301ZM9.83974694 31.4199679 9.83974694 15.5804062 21.4394414 15.5804062C28.7192849 15.5804062 32.0792127 18.5402447 32.0792127 23.5801364 32.0792127 29.0201173 28.7192849 31.4199679 21.4394414 31.4199679L9.83974694 31.4199679ZM130.218516 71.2648835C126.467915 61.4011517 117.653797 55.6552403 104.713983 55.6552403 88.3986626 55.6552403 75.3650326 68.3920134 75.3650326 86.9703973 75.3650326 105.740352 87.7422903 118.28564 104.338889 118.28564 113.715563 118.28564 122.154586 113.880447 124.780076 106.219192L125.999004 117.136458 132 117.136458 132 87.353538 101.713399 87.353538 101.713399 93.6739891 124.592443 93.6739891C123.561147 103.920861 116.716146 111.19901 105.276539 111.19901 92.6180033 111.19901 83.8977015 102.005501 83.8977015 87.0662681 83.8977015 72.1268643 92.5243581 62.8376723 104.713983 62.8376723 114.747029 62.8376723 121.12312 68.1047435 123.279698 76.0532856L130.218516 71.2648835ZM46.3856982 119.995581C45.740625 118.41902 44.8515949 117.012801 45.3287231 115.232327 45.6914912 113.87805 46.5123846 113.281802 47.3637512 112.772147 47.9198016 112.439407 48.4941702 112.138663 49.0454271 111.797774 50.6623902 110.79774 52.0995956 109.511839 52.7946586 106.918021 53.4895505 104.324203 52.8879614 102.492045 51.9876323 100.817388 51.6806746 100.246615 51.3334855 99.6989529 51.0184816 99.1328018 50.535875 98.265685 50.1231171 97.3389913 50.4860565 95.9846456 50.8489958 94.6304711 51.669718 94.0341892 52.5212558 93.5245334 53.077135 93.1917249 53.6516748 92.8909304 54.2027604 92.5500756 55.8198947 91.5501093 57.256929 90.2642428 57.951992 87.6704251 58.647055 85.0766074 58.0452948 83.2444487 57.1449656 81.5697919 56.838008 80.9990185 56.4909901 80.4513568 56.1758149 79.8852057 55.6932084 79.0180889 55.2806217 78.091224 55.6433898 76.7370495 56.2360766 74.5250029 57.966715 74.0138063 59.3195199 73.2095191 60.9703802 72.2280422 62.3449272 71.0513998 62.9266573 68.8800983 63.3246922 67.3947863 63.1106949 65.43149 62.4885622 63.4219704 61.776037 61.1197025 60.5692638 58.7313222 59.6917039 57.1479139 59.6917039 57.1479139 68.9067672 51.2900392 68.9067672 51.2900392 69.8035013 50.7201217 70.1411033 49.5751509 69.6973586 48.6097666L64.7353619 37.8178004C64.7353619 37.8178004 74.1567186 31.7265831 74.1567186 31.7265831 75.0436943 31.1532417 75.3746197 30.0154612 74.9337854 29.0558976L69.9604896 18.2284935C69.9604896 18.2284935 79.431836 12.0022012 79.431836 12.0022012 80.3085399 11.4259494 80.6331309 10.296044 80.1962342 9.34230117L76.4848373 1.24002346C75.9965812.173974835 74.7346823-.295107104 73.6686337.193320185 72.6025851.681576276 72.1336743 1.94347517 72.6219304 3.0095238L75.5738939 9.45357973C75.5738939 9.45357973 66.1010067 15.6808993 66.1010067 15.6808993 65.223618 16.2576646 64.8991982 17.3889396 65.3374646 18.3430249L70.3047684 29.1574179C70.3047684 29.1574179 60.8828981 35.2489776 60.8828981 35.2489776 59.9957512 35.8224902 59.6648259 36.9607843 60.1061738 37.9205191L65.0620073 48.6994742C65.0620073 48.6994742 55.6846485 54.6605812 55.6846485 54.6605812 55.2087186 54.9630877 54.8726574 55.4422703 54.7504222 55.9928424 54.6280157 56.5432433 54.7297072 57.1198374 55.0328985 57.5952537 55.0328985 57.5952537 56.7561754 60.298638 57.9232308 63.2509438 58.566592 64.87835 59.146439 66.5714961 58.8225327 67.7804949 58.4686669 69.1007722 57.3117123 69.4662795 56.2735689 70.059651 54.3061639 71.1844205 52.3729985 72.5262688 51.5392653 75.637275 50.8443734 78.2310926 51.4459625 80.0632514 52.3462916 81.7379081 52.6532493 82.3086816 53.0004384 82.8563433 53.3154423 83.4224944 53.7980489 84.2896112 54.2108067 85.216476 53.8478674 86.5706505 53.4849281 87.9249962 52.6642059 88.5212781 51.8126681 89.0307627 51.2567889 89.3635712 50.6822491 89.6643657 50.1311634 90.0052205 48.5140291 91.0051868 47.0769949 92.2912246 46.3819319 94.8850423 45.6868689 97.4786887 46.2886291 99.3110187 47.1889583 100.985504 47.4959159 101.556449 47.8429338 102.104111 48.1581089 102.67009 48.6407155 103.537378 49.0533022 104.464072 48.6905341 105.818247 48.3275947 107.172592 47.5068726 107.768857 46.6553348 108.278496 46.0992843 108.611253 45.5249158 108.911979 44.9736589 109.252885 43.3566958 110.25292 41.9194903 111.538821 41.2245985 114.132621 40.4841681 116.895822 41.4521204 119.157704 42.4531139 121.604446 42.8972009 122.689669 44.1387273 123.210264 45.2237789 122.76628 46.3090016 122.322295 46.8296141 121.080786 46.3856982 119.995581Z" transform="translate(9 13.538)"/></svg>