<svg xmlns="http://www.w3.org/2000/svg" width="44" height="44" viewBox="0 0 44 44"><path d="M0,19.3415542 C0,19.8689583 0.191201207,20.2677332 0.573522569,20.5380409 C0.955884456,20.8083082 1.36458818,20.9038683 1.79967427,20.8248022 C2.20837799,20.7456957 2.49513928,20.6006535 2.65999865,20.3897161 C2.82477696,20.1787788 2.90720665,19.8293645 2.90720665,19.3415542 L2.90720665,13.6063285 C2.90720665,13.1975843 2.76548757,12.8514931 2.48200888,12.5680549 C2.19857072,12.2845762 1.85247952,12.1428571 1.44373527,12.1428571 C1.04820246,12.1428571 0.708716979,12.2845762 0.425238292,12.5680549 C0.141759606,12.8514931 0,13.1975843 0,13.6063285 L0,19.3415542 Z M4.54862727,21.7938576 C4.54862727,22.17626 4.68378115,22.4629808 4.95404839,22.654182 C5.22435616,22.8453832 5.57044737,22.9409433 5.99232201,22.9409433 C6.4274081,22.9409433 6.7800645,22.8453427 7.05037227,22.654182 C7.32063951,22.4630213 7.45579339,22.17626 7.45579339,21.7938576 L7.45579339,8.42484877 C7.45579339,8.02931596 7.31403379,7.68978995 7.03059563,7.40635179 C6.74711694,7.12291363 6.40102573,6.98115403 5.99232201,6.98115403 C5.5967892,6.98115403 5.2572632,7.12291363 4.97382503,7.40635179 C4.69034635,7.68983048 4.54862727,8.02931596 4.54862727,8.42484877 L4.54862727,21.7938576 L4.54862727,21.7938576 Z M9.0774779,22.4267101 C9.0774779,22.809072 9.21591438,23.0958333 9.49278734,23.2870345 C9.76966031,23.4781952 10.1256398,23.5737958 10.5607664,23.5737958 C10.9826411,23.5737958 11.3287323,23.4781952 11.5989995,23.2870345 C11.8693073,23.0958333 12.0044612,22.809072 12.0044612,22.4267101 L12.0044612,10.224523 C12.0044612,9.81581931 11.8627016,9.46640498 11.5792634,9.1763611 C11.2957847,8.88631722 10.9562993,8.74131554 10.5607664,8.74131554 C10.1520222,8.74131554 9.80264839,8.88631722 9.51260451,9.1763611 C9.22256063,9.46640498 9.07751842,9.81581931 9.07751842,10.224523 L9.07751842,22.4267101 L9.0774779,22.4267101 Z M13.6261052,22.48604 C13.6261052,23.2112105 14.1139155,23.5737958 15.0895765,23.5737958 C16.0651971,23.5737958 16.5530074,23.2112105 16.5530074,22.48604 L16.5530074,2.70939972 C16.5530074,1.60190786 16.2168045,0.975661097 15.5443987,0.830618893 C15.1093127,0.725129969 14.6807918,0.850395533 14.2589171,1.20637506 C13.837002,1.56235458 13.6260646,2.06333579 13.6260646,2.70939972 L13.6260646,22.48604 L13.6261052,22.48604 Z M18.2538795,23.0595626 L18.2538795,1.54257794 C18.2538795,0.857001255 18.4582111,0.448297531 18.8669554,0.316426245 C19.7502985,0.105488924 20.6270764,0 21.4972485,0 C23.5144253,0 25.3932467,0.474639367 27.1335505,1.4239181 C28.8738948,2.37319684 30.2813594,3.66856678 31.3558632,5.31002792 C32.4304075,6.95152959 33.0533717,8.76105165 33.2247557,10.7387562 C34.0289922,10.3959476 34.885953,10.2245636 35.7956784,10.2245636 C37.6415117,10.2245636 39.2203603,10.8771927 40.5321838,12.1824509 C41.8440477,13.4877497 42.5,15.0566695 42.5,16.8893319 C42.5,18.7351651 41.8440477,20.3106906 40.5321838,21.6159489 C39.2203603,22.9212072 37.6481174,23.5738363 35.8154551,23.5738363 L18.609778,23.5540596 C18.4910776,23.5145064 18.4020827,23.441965 18.3427528,23.3365166 C18.2834229,23.2310682 18.2538795,23.1386691 18.2538795,23.0595626 L18.2538795,23.0595626 Z" transform="translate(1.5 10.713)"/></svg>