<svg xmlns="http://www.w3.org/2000/svg" width="44" height="44" viewBox="0 0 44 44"><path d="M19,0 C8.512,0 0,8.512 0,19 C0,29.488 8.512,38 19,38 C29.488,38 38,29.488 38,19 C38,8.512 29.488,0 19,0 Z M26.7182222,27.9595556 C26.3973333,27.9595556 26.1946667,27.8582222 25.8991111,27.6808889 C21.1195556,24.8013333 15.5546667,24.6746667 10.0657778,25.8062222 C9.77022222,25.8822222 9.37333333,26.0088889 9.15377778,26.0088889 C8.41066667,26.0088889 7.94622222,25.4177778 7.94622222,24.8013333 C7.94622222,24.016 8.41066667,23.636 8.98488889,23.5177778 C15.2591111,22.1328889 21.6684444,22.2511111 27.1404444,25.5275556 C27.6048889,25.8231111 27.8835556,26.0933333 27.8835556,26.7942222 C27.8835556,27.4697778 27.3346667,27.9595556 26.7182222,27.9595556 L26.7182222,27.9595556 Z M28.7786667,22.9266667 C28.3817778,22.9266667 28.1115556,22.7493333 27.8328889,22.6057778 C23.0448889,19.7684444 15.9008889,18.6284444 9.55066667,20.3511111 C9.17911111,20.4524444 8.98488889,20.5537778 8.63866667,20.5537778 C7.81955556,20.5537778 7.15244444,19.8866667 7.15244444,19.0675556 C7.15244444,18.2484444 7.54933333,17.708 8.34311111,17.48 C10.4711111,16.8804444 12.6497778,16.4413333 15.8333333,16.4413333 C20.8071111,16.4413333 25.612,17.6742222 29.3951111,19.9288889 C30.0115556,20.3004444 30.2648889,20.7733333 30.2648889,21.4404444 C30.2564444,22.2595556 29.6146667,22.9266667 28.7786667,22.9266667 Z M31.1515556,17.0915556 C30.7546667,17.0915556 30.5097778,16.9902222 30.1635556,16.796 C24.7084444,13.5364444 14.9551111,12.7595556 8.64711111,14.5244444 C8.36844444,14.6004444 8.03066667,14.7271111 7.65911111,14.7271111 C6.64577778,14.7271111 5.87733333,13.9417778 5.87733333,12.92 C5.87733333,11.8813333 6.51911111,11.2902222 7.21155556,11.0875556 C9.90533333,10.3022222 12.9284444,9.92222222 16.2133333,9.92222222 C21.8035556,9.92222222 27.664,11.0875556 31.9537778,13.5871111 C32.5533333,13.9333333 32.9417778,14.4062222 32.9417778,15.3182222 C32.9248889,16.3484444 32.0888889,17.0915556 31.1515556,17.0915556 L31.1515556,17.0915556 Z" transform="translate(3.5 3.5)"/></svg>