<svg xmlns="http://www.w3.org/2000/svg" width="44" height="44" viewBox="0 0 44 44"><path fill-rule="evenodd" d="M40.560902,10.5274654 C39.1945442,11.1392105 37.7334827,11.5470315 36.2047757,11.7237522 C37.77407,10.7857557 38.9780921,9.29039383 39.5462737,7.50956543 C38.0716966,8.37958722 36.4482859,9.01850862 34.7166695,9.35836853 C33.3367691,7.87660163 31.3616289,6.95220008 29.1835793,6.95220008 C24.9897886,6.95220008 21.5941742,10.3643397 21.5941742,14.5785265 C21.5941742,15.1766766 21.6618197,15.7612319 21.7970972,16.3185836 C15.4793666,15.9923322 9.892164,12.9608237 6.14481469,8.35239734 C5.49545312,9.48072299 5.11666,10.7857557 5.11666,12.1859529 C5.11666,14.8368167 6.45596637,17.1614291 8.4987453,18.5344365 C7.25413721,18.4936517 6.090701,18.1538054 5.06254767,17.5828451 L5.06254767,17.6780097 C5.06254767,21.3756159 7.67351627,24.4479037 11.1502985,25.1547998 C10.5144674,25.3315246 9.83805032,25.4266837 9.14810551,25.4266837 C8.66108501,25.4266837 8.18759361,25.372308 7.71410086,25.2907425 C8.67461276,28.3222442 11.488507,30.5244994 14.8029509,30.59247 C12.2055087,32.6315968 8.93165211,33.8550721 5.37369935,33.8550721 C4.764924,33.8550721 4.15614878,33.81429 3.56090197,33.7463194 C6.91593003,35.9077925 10.9067896,37.1720506 15.1952717,37.1720506 C29.1565211,37.1720506 36.7864999,25.54903 36.7864999,15.4757517 C36.7864999,15.1494867 36.7729708,14.8096268 36.7594417,14.4833755 C38.2610905,13.3958346 39.5462737,12.0500171 40.560902,10.5274654 L40.560902,10.5274654 Z"/></svg>