<svg xmlns="http://www.w3.org/2000/svg" width="48" height="48" viewBox="0 0 48 48"><path d="M5.51219636,35.4435641 C5.76910798,38.9742685 8.43228377,41.9081762 11.9776414,42.4697057 C12.7958692,42.5993002 13.3541168,43.3676621 13.2245222,44.1858899 C13.0949277,45.0041177 12.3265658,45.5623653 11.508338,45.4327707 C6.57888193,44.6520216 2.87761679,40.574495 2.52010707,35.6612834 C2.45998555,34.8350408 3.08104943,34.1165006 3.90729207,34.0563791 C4.73353471,33.9962576 5.45207484,34.6173214 5.51219636,35.4435641 Z M25.0509354,8.29293001 C25.2844256,8.59284901 25.6064409,9.01662175 26.0978021,9.66968818 L26.5392523,10.2573189 C26.5685929,10.2964225 26.6095357,10.3510111 26.6582276,10.4159432 L27.1085052,11.0165377 C27.1401826,11.0587952 27.1713891,11.100425 27.2016429,11.1407846 L27.4142183,11.4243746 C27.4915456,11.5275373 27.540593,11.5929748 27.5397112,11.5917986 C27.9643773,12.1581957 28.2951477,12.5986928 28.6176183,13.0269816 C28.672351,13.0996668 28.672351,13.0996668 28.7270884,13.1723247 C30.4866656,15.5076955 31.6488026,17.0076999 32.2312253,17.6736269 C32.444363,17.917323 32.6642917,18.1820044 32.9437014,18.5279049 C33.0496514,18.6590677 33.5195045,19.2456534 33.6460648,19.4021245 C34.7951833,20.8228203 35.5670688,21.5741357 36.1616389,21.8252078 L36.1908075,21.835474 L36.1973879,21.8204174 C36.3379685,21.3981101 36.4034056,20.7558996 36.4141414,19.8423338 L36.4157416,19.560072 C36.4157416,16.8297881 37.7297043,14.7898682 40.297836,14.7898682 C42.9703186,14.7898682 44.1061925,16.9918808 44.1061925,20.2630929 C44.1061925,21.6475061 44.0939546,22.6512479 44.0442235,23.9891355 C43.9709788,25.9595964 43.8315504,27.864565 43.6071535,29.6608964 C43.2411545,32.5907754 42.6747676,35.0357128 41.8458131,36.8803205 C39.5672666,41.9505915 36.2251131,44.5272966 31.2916422,45.1556034 C27.0216952,45.6994066 21.9638176,43.0471503 18.7888902,39.5463204 C17.8694806,38.5325345 16.4286317,36.7054723 14.5143006,34.1645745 C14.3534651,33.9509601 14.3534651,33.9509601 14.1928723,33.7371493 C13.7912909,33.2021826 13.1887975,32.3914018 12.5530917,31.5335407 L12.2332475,31.1017457 C11.1392681,29.6242924 10.0300137,28.1208376 9.73478851,27.7225112 L9.67842107,27.6466077 C9.67201296,27.6380126 9.66713807,27.6314997 9.6638564,27.627151 C8.07492771,25.5215526 8.35005216,23.1341493 9.78831082,21.6621513 C10.1617662,21.2799352 10.5899617,20.9795407 11.0544727,20.7725079 L11.1208075,20.744474 L11.0846304,20.6994872 C10.7098971,20.2408313 10.3195087,19.7632192 10.182227,19.5951219 L10.1462094,19.5510036 C9.5589367,18.8311651 9.19406468,18.379182 8.9559347,18.074143 C7.58091929,16.3127806 7.42006565,13.8979385 9.1189852,12.3242467 C9.6794541,11.80509 10.32548,11.4597693 11.0026214,11.2875791 L11.0998075,11.264474 L11.0886085,11.2238492 C10.6986322,9.78688957 11.1226521,8.28805049 12.2570292,7.22560788 L12.4161103,7.08348107 C14.0263312,5.71101744 16.4588181,6.05194953 17.8612637,7.64609869 L18.0588075,7.87147399 L18.097369,7.81392597 C18.295716,7.53233132 18.5362032,7.2703719 18.8191011,7.03303332 L18.9939313,6.89362456 C20.9209655,5.43301593 23.321117,6.07097153 25.0509354,8.29293001 Z M20.8060831,9.28446247 C20.3156155,9.65621569 20.2309166,10.2540831 20.6919174,11.1185602 L28.9804673,21.7382188 C29.4901097,22.3913315 29.3738041,23.3339307 28.7206914,23.8435731 C28.0675788,24.3532155 27.1249796,24.2369098 26.6153372,23.5837972 L18.2485544,12.8616679 L18.2584047,12.8741541 C18.168078,12.760896 17.9820433,12.5272232 17.7836587,12.2780255 L17.545004,11.9782495 C17.3779234,11.768391 17.2262663,11.5779514 17.1425264,11.4729839 L17.1065592,11.4279286 C16.7655445,11.0011541 16.5259742,10.7058009 16.2935005,10.4266757 C16.2342617,10.3556647 16.2342617,10.3556647 16.1748999,10.2849801 C15.9948682,10.0709744 15.8123422,9.85897991 15.608839,9.62765936 C15.2338499,9.20141214 14.6517498,9.11982625 14.362162,9.36665493 C13.9172,9.74591604 13.8266792,10.2294576 14.1067861,10.7356649 C14.2708831,11.03222 15.0433317,12.1757386 15.5532728,12.8938415 L23.9928406,23.8057399 C24.4996717,24.4610367 24.3793165,25.4031274 23.7240198,25.9099584 C23.068723,26.4167895 22.1266323,26.2964343 21.6198013,25.6411376 L13.2227342,14.7849771 L13.1121016,14.6643899 C12.4783745,14.0241247 11.7165287,14.0074369 11.1576404,14.5251294 C10.7649723,14.8888539 10.81066,15.574748 11.3206909,16.2280856 C11.5409895,16.5102829 11.8973414,16.9517118 12.4707474,17.6545535 C12.6160099,17.8326062 13.7731778,19.2480107 14.1297922,19.6856478 C14.1690522,19.7338319 14.1690522,19.7338319 14.2083115,19.7820327 C14.9808544,20.7306156 15.5735097,21.4663858 16.0528119,22.0751792 C16.1023148,22.1380562 16.1459668,22.2016173 16.1840724,22.265586 L20.971556,28.3213041 C21.4853658,28.9711433 21.3750923,29.9144672 20.7252531,30.428277 C20.0754139,30.9420869 19.13209,30.8318133 18.6182802,30.1819741 L13.6997342,23.9609771 C12.9086914,23.2683631 12.3510951,23.33194 11.93408,23.7587377 C11.489852,24.2133866 11.4045661,24.9534584 12.0585344,25.8200768 C12.1467855,25.9370244 13.2000818,27.3649489 14.3188351,28.8768393 L14.639483,29.3100329 C15.3881909,30.3212025 16.127913,31.3177534 16.5921049,31.9361266 C16.7511781,32.1479142 16.7511781,32.1479142 16.9103761,32.3593536 C18.7691619,34.826526 20.173888,36.6077829 21.0111243,37.5309605 C23.5929774,40.3778377 27.7879274,42.5775909 30.9126357,42.1796407 C34.787474,41.6861571 37.2504307,39.7872877 39.1094277,35.650607 C39.7926151,34.1303636 40.2980839,31.9483929 40.6302904,29.2890282 C41.0048102,26.2909396 41.1061925,23.5635073 41.1061925,20.2630929 C41.1061925,18.4320731 40.7749211,17.7898682 40.297836,17.7898682 C39.733245,17.7898682 39.4157416,18.2827905 39.4157416,19.560072 C39.4157416,20.9349148 39.3311642,21.9047649 39.0438188,22.7679571 C38.5262987,24.3225991 37.2907788,25.224994 35.6132453,24.7978301 C34.1201691,24.4176361 33.0164164,23.3940689 31.3135527,21.2887583 C31.1811934,21.1251178 30.7105312,20.5375219 30.6099721,20.4130329 C30.3530484,20.0949695 30.1557993,19.8575825 29.9730526,19.6486347 C29.3216185,18.9038019 28.1443107,17.3842162 26.3310581,14.9776056 C26.2760146,14.9045412 26.2760146,14.9045412 26.2209907,14.8314694 C25.8970968,14.4012903 25.5652175,13.9593164 25.1394433,13.3914414 C25.1404153,13.3927378 25.0634646,13.2900729 24.9508472,13.1398318 L24.8012906,12.9403148 L24.2583829,12.2161504 C24.2097639,12.1513154 24.1688969,12.0968277 24.1396324,12.0578255 C23.4004438,11.0726741 22.9658551,10.4982366 22.6837198,10.1358327 C21.8732732,9.09481094 21.2684092,8.93403926 20.8060831,9.28446247 Z M8.56060354,33.4825496 C9.38870478,33.4593149 10.0788489,34.1117882 10.1020835,34.9398894 C10.1422105,36.3700484 11.0728924,37.6402597 12.4251166,38.1091047 C13.2078313,38.3804887 13.6223468,39.2350044 13.3509628,40.0177191 C13.0795789,40.8004338 12.2250632,41.2149493 11.4423485,40.9435654 C8.91149809,40.0660654 7.17836363,37.7006523 7.10326366,35.0240295 C7.08002902,34.1959283 7.73250231,33.5057842 8.56060354,33.4825496 Z M30.0114666,5.50855569 C32.542317,6.38605563 34.2754514,8.75146872 34.3505514,11.4280915 C34.373786,12.2561928 33.7213128,12.9463369 32.8932115,12.9695715 C32.0651103,12.9928061 31.3749662,12.3403328 31.3517316,11.5122316 C31.3116045,10.0820727 30.3809227,8.81186133 29.0286985,8.34301629 C28.2459838,8.07163238 27.8314683,7.21711664 28.1028522,6.43440196 C28.3742361,5.65168727 29.2287519,5.23717178 30.0114666,5.50855569 Z M29.945477,1.01935033 C34.8749331,1.80009948 38.5761983,5.87762608 38.933708,10.7908377 C38.9938295,11.6170803 38.3727656,12.3356204 37.546523,12.3957419 C36.7202804,12.4558635 36.0017402,11.8347996 35.9416187,11.008557 C35.6847071,7.4778525 33.0215313,4.54394484 29.4761736,3.98241535 C28.6579458,3.8528208 28.0996983,3.08445896 28.2292928,2.26623115 C28.3588874,1.44800333 29.1272492,0.889755778 29.945477,1.01935033 Z"/></svg>